<svg width="19" height="31" viewBox="0 0 19 31" fill="none" xmlns="http://www.w3.org/2000/svg">
<path d="M1.08008 17.56C1.72008 18.2 5.08008 21.28 5.68008 21.32C6.60008 22.6 7.56008 23.72 9.04008 24.32C10.0401 24.76 10.8001 27.56 11.8401 28.04C13.4001 28.76 15.3201 30.16 17.0801 29.92C17.7201 29.84 18.3601 28.6 18.3601 28C18.3601 26.92 17.2001 25.28 16.3601 24.64C15.6401 24.6 15.0401 24.12 14.3201 24.04C12.6001 22.6 13.9201 23.4 13.2401 22.16C13.0001 21.72 10.8801 21.04 10.2801 20.64C8.76008 19.64 7.52008 18.28 5.84008 17.52C5.44008 16.36 4.84008 14.36 5.76008 13.28C6.80008 12.08 5.32008 12.4 7.24008 11.56C8.28008 11.12 7.72008 10.72 7.84008 10.2C8.04008 9.39999 9.72008 8.95999 10.4001 8.67999C10.8001 6.79999 11.0401 7.95999 11.6401 7.31999C12.5201 6.39999 14.0801 5.15999 14.5201 3.99999C14.9601 3.63999 15.6801 3.39999 16.0801 2.95999C16.6401 2.35999 16.1201 -1.00136e-05 14.0801 1.19999C13.4001 1.55999 13.1201 2.31999 12.6001 2.79999C12.0801 3.27999 11.2801 3.39999 10.8801 3.83999C10.0401 4.75999 8.84008 7.07999 7.92008 8.23999C6.76008 9.63999 4.32008 10.36 3.24008 11.28C2.72008 11.68 2.52008 12.36 2.04008 12.8C1.48008 13.32 0.0800767 14.36 7.77245e-05 15.16C0.480076 15.68 0.0800767 16.12 0.280077 16.6C0.440077 17 1.00008 17.12 1.08008 17.56Z" fill="#9C3E3E"/>
</svg>
