<svg width="19" height="31" viewBox="0 0 19 31" fill="none" xmlns="http://www.w3.org/2000/svg">
<path d="M17.2798 17.56C16.6398 18.2 13.2798 21.28 12.6798 21.32C11.7598 22.6 10.7998 23.72 9.31979 24.32C8.31979 24.76 7.55979 27.56 6.51979 28.04C4.95979 28.76 3.03979 30.16 1.27979 29.92C0.639785 29.84 -0.000214696 28.6 -0.000214696 28C-0.000214696 26.92 1.15979 25.28 1.99979 24.64C2.71979 24.6 3.31979 24.12 4.03979 24.04C5.75979 22.6 4.43979 23.4 5.11979 22.16C5.35979 21.72 7.47979 21.04 8.07979 20.64C9.59979 19.64 10.8398 18.28 12.5198 17.52C12.9198 16.36 13.5198 14.36 12.5998 13.28C11.5598 12.08 13.0398 12.4 11.1198 11.56C10.0798 11.12 10.6398 10.72 10.5198 10.2C10.3198 9.39999 8.63979 8.95999 7.95979 8.67999C7.55979 6.79999 7.31979 7.95999 6.71979 7.31999C5.83979 6.39999 4.27979 5.15999 3.83979 3.99999C3.39979 3.63999 2.67979 3.39999 2.27979 2.95999C1.71979 2.35999 2.23979 -1.00136e-05 4.27979 1.19999C4.95979 1.55999 5.23979 2.31999 5.75979 2.79999C6.27979 3.27999 7.07979 3.39999 7.47979 3.83999C8.31979 4.75999 9.51979 7.07999 10.4398 8.23999C11.5998 9.63999 14.0398 10.36 15.1198 11.28C15.6398 11.68 15.8398 12.36 16.3198 12.8C16.8798 13.32 18.2798 14.36 18.3598 15.16C17.8798 15.68 18.2798 16.12 18.0798 16.6C17.9198 17 17.3598 17.12 17.2798 17.56Z" fill="#9C3E3E"/>
</svg>
